<svg xmlns="http://www.w3.org/2000/svg" viewBox="0 0 780 512" role="img" aria-label="CodeNexus">
  <g fill="#141413" fill-rule="evenodd" clip-rule="evenodd">
    <path d="M184 132h-48L44 224c-18 18-18 46 0 64l92 92h48v-56l-68-68 68-68z"/>
    <path d="M596 132h48l92 92c18 18 18 46 0 64l-92 92h-48v-56l68-68-68-68z"/>
    <path d="M318 124h106l42 70H332c-34 0-58 24-58 62s24 62 58 62h88l-58 70h-46c-74 0-124-54-124-132s50-132 126-132zm14 84c-25 0-42 17-42 48s17 48 42 48h48l40-48-28-48z"/>
    <path d="M430 154h62l104 158V154h60v234h-72L480 230v158h-60V154z"/>
    <path d="M362 318 296 396l-28-24 66-78z"/>
    <path d="M548 184 616 98l28 24-68 86z"/>
    <circle cx="272" cy="420" r="34"/>
    <circle cx="638" cy="80" r="34"/>
  </g>
</svg>
